<mxfile host="app.diagrams.net" modified="2023-11-14T16:39:58.107Z" agent="Mozilla/5.0 (Windows NT 10.0; Win64; x64; rv:109.0) Gecko/20100101 Firefox/119.0" version="22.1.1" etag="4H3cVpFIFPaxcqIFhHTT" type="github">
  <diagram name="Page-1" id="6sfD6XuJXOn0PDrtRclJ">
    <mxGraphModel>
      <root>
        <mxCell id="0" />
        <mxCell id="1" parent="0" />
      </root>
    </mxGraphModel>
  </diagram>
</mxfile>
